<?xml version="1.0" encoding="UTF-8"?>
<svg width="1280px" height="1280px" viewBox="0 0 1280 1280" version="1.1" xmlns="http://www.w3.org/2000/svg" xmlns:xlink="http://www.w3.org/1999/xlink">
    <title>phi logo fatline 80ff80@1x</title>
    <g id="phi-logo-fatline-80ff80" stroke="none" stroke-width="1" fill="none" fill-rule="evenodd">
        <path d="M928,48 L1088,128 L1088,288 L960,352 L1088,416 L1088,720 L512,1008 L512,1152 L352,1232 L192,1152 L192,704 L480,560 L480,416 L640,336 L784,408 L896,352 L768,288 L768,128 L928,48 Z M624,664 L368,792 L368,1192 L480,1136 L480,864 L512,848 L511.813529,976.093236 L624,920 L624,664 Z M768,448 L656,504 L656,904 L768,848 L768,720 L800,704 L800,832 L912,776 L912,520 L768,592 L768,448 Z M1056,448 L944,504 L944,760 L1056,704 L1056,448 Z M1056,160 L944,216 L944,328 L1056,272 L1056,160 Z" id="logo" fill="#80FF80" fill-rule="nonzero"></path>
    </g>
</svg>