<?xml version="1.0" encoding="UTF-8"?>
<svg width="1280px" height="1280px" viewBox="0 0 1280 1280" version="1.1" xmlns="http://www.w3.org/2000/svg" xmlns:xlink="http://www.w3.org/1999/xlink">
    <title>phi logo fatline lines black@1x</title>
    <g id="phi-logo-fatline-lines-black" stroke="none" stroke-width="1" fill="none" fill-rule="evenodd">
        <path d="M928,48 L1088,128 L1088,288 L960,352 L1088,416 L1088,720 L512,1008 L512,1152 L352,1232 L192,1152 L192,704 L480,560 L480,416 L640,336 L784,408 L896,352 L768,288 L768,128 L928,48 Z M624,664 L368,792 L368,1192 L480,1136 L480,864 L512,848 L511.813529,976.093236 L624,920 L624,664 Z M224,736 L224,1136 L336,1192 L336,792 L224,736 Z M768,448 L656,504 L656,904 L768,848 L768,720 L800,704 L800,832 L912,776 L912,520 L768,592 L768,448 Z M496,584 L240,712 L352,768 L608,640 L496,584 Z M1056,448 L944,504 L944,760 L1056,704 L1056,448 Z M512,448 L512,560 L624,616 L624,504 L512,448 Z M800,448 L800,544 L896,496 L800,448 Z M640,368 L528,424 L640,480 L752,424 L640,368 Z M928,368 L816,424 L928,480 L1040,424 L928,368 Z M1056,160 L944,216 L944,328 L1056,272 L1056,160 Z M800,160 L800,272 L912,328 L912,216 L800,160 Z M928,80 L816,136 L928,192 L1040,136 L928,80 Z" id="logo" fill="#000000" fill-rule="nonzero"></path>
    </g>
</svg>