<?xml version="1.0" encoding="UTF-8"?>
<svg width="3248px" height="1280px" viewBox="0 0 3248 1280" version="1.1" xmlns="http://www.w3.org/2000/svg" xmlns:xlink="http://www.w3.org/1999/xlink">
    <title>phi logo thin vs normal vs bold@1x</title>
    <g id="phi-logo-thin-vs-normal-vs-bold" stroke="none" stroke-width="1" fill="none" fill-rule="evenodd">
        <rect fill="#F2F0ED" x="0" y="0" width="3248" height="1280"></rect>
        <path d="M2940,40 L3108,124 L3108,292 L2988,352 L3108,412 L3108,724 L2532,1012 L2532,1156 L2364,1240 L2196,1156 L2196,700 L2484,556 L2484,412 L2652,328 L2796,400 L2892,352 L2772,292 L2772,124 L2940,40 Z M2628,676 L2388,796 L2388,1180 L2484,1132 L2484,868 L2532,844 L2531.81353,964.093232 L2628,916 L2628,676 Z M2772,460 L2676,508 L2676,892 L2772,844 L2772,724 L2820,700 L2820,820 L2916,772 L2916,532 L2772,604 L2772,460 Z M3060,460 L2964,508 L2964,748 L3060,700 L3060,460 Z M3060,172 L2964,220 L2964,316 L3060,268 L3060,172 Z" id="logo-bold" fill="#8080FF" fill-rule="nonzero"></path>
        <path d="M1896,48 L2056,128 L2056,288 L1928,352 L2056,416 L2056,720 L1480,1008 L1480,1152 L1320,1232 L1160,1152 L1160,704 L1448,560 L1448,416 L1608,336 L1752,408 L1864,352 L1736,288 L1736,128 L1896,48 Z M1592,664 L1336,792 L1336,1192 L1448,1136 L1448,864 L1480,848 L1479.81353,976.093236 L1592,920 L1592,664 Z M1736,448 L1624,504 L1624,904 L1736,848 L1736,720 L1768,704 L1768,832 L1880,776 L1880,520 L1736,592 L1736,448 Z M2024,448 L1912,504 L1912,760 L2024,704 L2024,448 Z M2024,160 L1912,216 L1912,328 L2024,272 L2024,160 Z" id="logo-normal" fill="#8080FF" fill-rule="nonzero"></path>
        <path d="M868,56 L1020,132 L1020,284 L884,352 L1020,420 L1020,716 L444,1004 L444,1148 L292,1224 L140,1148 L140,708 L428,564 L428,420 L580,344 L724,416 L852,352 L716,284 L716,132 L868,56 Z M572,652 L300,788 L300,1204 L428,1140 L428,860 L444,852 L443.813529,988.093232 L572,924 L572,652 Z M716,436 L588,500 L588,916 L716,852 L716,716 L732,708 L732,844 L860,780 L860,508 L716,580 L716,436 Z M1004,436 L876,500 L876,772 L1004,708 L1004,436 Z M1004,148 L876,212 L876,340 L1004,276 L1004,148 Z" id="logo-thin" fill="#8080FF" fill-rule="nonzero"></path>
    </g>
</svg>