<?xml version="1.0" encoding="UTF-8"?>
<svg width="2360px" height="1280px" viewBox="0 0 2360 1280" version="1.1" xmlns="http://www.w3.org/2000/svg" xmlns:xlink="http://www.w3.org/1999/xlink">
    <title>phi logo thinline vs fatline@1x</title>
    <g id="phi-logo-thinline-vs-fatline" stroke="none" stroke-width="1" fill="none" fill-rule="evenodd">
        <rect fill="#F2F0ED" x="0" y="0" width="2360" height="1280"></rect>
        <path d="M2008,48 L2168,128 L2168,288 L2040,352 L2168,416 L2168,720 L1592,1008 L1592,1152 L1432,1232 L1272,1152 L1272,704 L1560,560 L1560,416 L1720,336 L1864,408 L1976,352 L1848,288 L1848,128 L2008,48 Z M1704,664 L1448,792 L1448,1192 L1560,1136 L1560,864 L1592,848 L1591.81353,976.093236 L1704,920 L1704,664 Z M1848,448 L1736,504 L1736,904 L1848,848 L1848,720 L1880,704 L1880,832 L1992,776 L1992,520 L1848,592 L1848,448 Z M2136,448 L2024,504 L2024,760 L2136,704 L2136,448 Z M2136,160 L2024,216 L2024,328 L2136,272 L2136,160 Z" id="logo" fill="#8080FF" fill-rule="nonzero"></path>
        <path d="M928,56 L1080,132 L1080,284 L944,352 L1080,420 L1080,716 L504,1004 L504,1148 L352,1224 L200,1148 L200,708 L488,564 L488,420 L640,344 L784,416 L912,352 L776,284 L776,132 L928,56 Z M632,652 L360,788 L360,1204 L488,1140 L488,860 L504,852 L503.813529,988.093232 L632,924 L632,652 Z M776,436 L648,500 L648,916 L776,852 L776,716 L792,708 L792,844 L920,780 L920,508 L776,580 L776,436 Z M1064,436 L936,500 L936,772 L1064,708 L1064,436 Z M1064,148 L936,212 L936,340 L1064,276 L1064,148 Z" id="logo" fill="#8080FF" fill-rule="nonzero"></path>
    </g>
</svg>