<?xml version="1.0" encoding="UTF-8"?>
<svg width="1280px" height="1280px" viewBox="0 0 1280 1280" version="1.1" xmlns="http://www.w3.org/2000/svg" xmlns:xlink="http://www.w3.org/1999/xlink">
    <title>phi logo fatline construction@1x</title>
    <g id="phi-logo-fatline-construction" stroke="none" stroke-width="1" fill="none" fill-rule="evenodd">
        <rect fill="#F2F0ED" x="0" y="0" width="1280" height="1280"></rect>
        <g id="phi-logo-construction@1x" transform="translate(8.000000, 8.000000)">
            <path d="M920,40 L1080,120 L1080,280 L952,344 L1080,408 L1080,712 L504,1000 L504,1144 L344,1224 L184,1144 L184,696 L472,552 L472,408 L632,328 L776,400 L888,344 L760,280 L760,120 L920,40 Z M616,656 L360,784 L360,1184 L472,1128 L472,856 L504,840 L503.813529,968.093232 L616,912 L616,656 Z M216,728 L216,1128 L328,1184 L328,784 L216,728 Z M760,440 L648,496 L648,896 L760,840 L760,712 L792,696 L792,824 L904,768 L904,512 L760,584 L760,440 Z M488,576 L232,704 L344,760 L600,632 L488,576 Z M1048,440 L936,496 L936,752 L1048,696 L1048,440 Z M504,440 L504,552 L616,608 L616,496 L504,440 Z M792,440 L792,536 L888,488 L792,440 Z M632,360 L520,416 L632,472 L744,416 L632,360 Z M920,360 L808,416 L920,472 L1032,416 L920,360 Z M1048,152 L936,208 L936,320 L1048,264 L1048,152 Z M792,152 L792,264 L904,320 L904,208 L792,152 Z M920,72 L808,128 L920,184 L1032,128 L920,72 Z" id="logo" fill-opacity="0.25" fill="#8080FF" fill-rule="nonzero"></path>
            <g id="grid-fine" stroke="#80FF80" stroke-opacity="0.5" stroke-width="2">
                <g id="grid-1x" transform="translate(8.000000, 8.000000)">
                    <g id="grid-1x-decrease">
                        <line x1="1232" y1="0" x2="1248" y2="8" id="1"></line>
                        <line x1="1200" y1="0" x2="1248" y2="24" id="2"></line>
                        <line x1="1168" y1="0" x2="1248" y2="40" id="3"></line>
                        <line x1="1136" y1="0" x2="1248" y2="56" id="4"></line>
                        <line x1="1104" y1="0" x2="1248" y2="72" id="5"></line>
                        <line x1="1072" y1="0" x2="1248" y2="88" id="6"></line>
                        <line x1="1040" y1="0" x2="1248" y2="104" id="7"></line>
                        <line x1="1008" y1="0" x2="1248" y2="120" id="8"></line>
                        <line x1="976" y1="0" x2="1248" y2="136" id="9"></line>
                        <line x1="944" y1="0" x2="1248" y2="152" id="10"></line>
                        <line x1="912" y1="0" x2="1248" y2="168" id="11"></line>
                        <line x1="880" y1="0" x2="1248" y2="184" id="12"></line>
                        <line x1="848" y1="0" x2="1248" y2="200" id="13"></line>
                        <line x1="816" y1="0" x2="1248" y2="216" id="14"></line>
                        <line x1="784" y1="0" x2="1248" y2="232" id="15"></line>
                        <line x1="752" y1="0" x2="1248" y2="248" id="16"></line>
                        <line x1="720" y1="0" x2="1248" y2="264" id="17"></line>
                        <line x1="688" y1="0" x2="1248" y2="280" id="18"></line>
                        <line x1="656" y1="0" x2="1248" y2="296" id="19"></line>
                        <line x1="624" y1="0" x2="1248" y2="312" id="20"></line>
                        <line x1="592" y1="0" x2="1248" y2="328" id="21"></line>
                        <line x1="560" y1="0" x2="1248" y2="344" id="22"></line>
                        <line x1="528" y1="0" x2="1248" y2="360" id="23"></line>
                        <line x1="496" y1="0" x2="1248" y2="376" id="24"></line>
                        <line x1="464" y1="0" x2="1248" y2="392" id="25"></line>
                        <line x1="432" y1="0" x2="1248" y2="408" id="26"></line>
                        <line x1="400" y1="0" x2="1248" y2="424" id="27"></line>
                        <line x1="368" y1="0" x2="1248" y2="440" id="28"></line>
                        <line x1="336" y1="0" x2="1248" y2="456" id="29"></line>
                        <line x1="304" y1="0" x2="1248" y2="472" id="30"></line>
                        <line x1="272" y1="0" x2="1248" y2="488" id="31"></line>
                        <line x1="240" y1="0" x2="1248" y2="504" id="32"></line>
                        <line x1="208" y1="0" x2="1248" y2="520" id="33"></line>
                        <line x1="176" y1="0" x2="1248" y2="536" id="34"></line>
                        <line x1="144" y1="0" x2="1248" y2="552" id="35"></line>
                        <line x1="112" y1="0" x2="1248" y2="568" id="36"></line>
                        <line x1="80" y1="0" x2="1248" y2="584" id="37"></line>
                        <line x1="48" y1="0" x2="1248" y2="600" id="38"></line>
                        <line x1="16" y1="0" x2="1248" y2="616" id="39"></line>
                        <line x1="0" y1="8" x2="1248" y2="632" id="40"></line>
                        <line x1="0" y1="24" x2="1248" y2="648" id="41"></line>
                        <line x1="0" y1="40" x2="1248" y2="664" id="42"></line>
                        <line x1="0" y1="56" x2="1248" y2="680" id="43"></line>
                        <line x1="0" y1="72" x2="1248" y2="696" id="44"></line>
                        <line x1="0" y1="88" x2="1248" y2="712" id="45"></line>
                        <line x1="0" y1="104" x2="1248" y2="728" id="46"></line>
                        <line x1="0" y1="120" x2="1248" y2="744" id="47"></line>
                        <line x1="0" y1="136" x2="1248" y2="760" id="48"></line>
                        <line x1="0" y1="152" x2="1248" y2="776" id="49"></line>
                        <line x1="0" y1="168" x2="1248" y2="792" id="50"></line>
                        <line x1="0" y1="184" x2="1248" y2="808" id="51"></line>
                        <line x1="0" y1="200" x2="1248" y2="824" id="52"></line>
                        <line x1="0" y1="216" x2="1248" y2="840" id="53"></line>
                        <line x1="0" y1="232" x2="1248" y2="856" id="54"></line>
                        <line x1="0" y1="248" x2="1248" y2="872" id="55"></line>
                        <line x1="0" y1="264" x2="1248" y2="888" id="56"></line>
                        <line x1="0" y1="280" x2="1248" y2="904" id="57"></line>
                        <line x1="0" y1="296" x2="1248" y2="920" id="58"></line>
                        <line x1="0" y1="312" x2="1248" y2="936" id="59"></line>
                        <line x1="0" y1="328" x2="1248" y2="952" id="60"></line>
                        <line x1="0" y1="344" x2="1248" y2="968" id="61"></line>
                        <line x1="0" y1="360" x2="1248" y2="984" id="62"></line>
                        <line x1="0" y1="376" x2="1248" y2="1000" id="63"></line>
                        <line x1="0" y1="392" x2="1248" y2="1016" id="64"></line>
                        <line x1="0" y1="408" x2="1248" y2="1032" id="65"></line>
                        <line x1="0" y1="424" x2="1248" y2="1048" id="66"></line>
                        <line x1="0" y1="440" x2="1248" y2="1064" id="67"></line>
                        <line x1="0" y1="456" x2="1248" y2="1080" id="68"></line>
                        <line x1="0" y1="472" x2="1248" y2="1096" id="69"></line>
                        <line x1="0" y1="488" x2="1248" y2="1112" id="70"></line>
                        <line x1="0" y1="504" x2="1248" y2="1128" id="71"></line>
                        <line x1="0" y1="520" x2="1248" y2="1144" id="72"></line>
                        <line x1="0" y1="536" x2="1248" y2="1160" id="73"></line>
                        <line x1="0" y1="552" x2="1248" y2="1176" id="74"></line>
                        <line x1="0" y1="568" x2="1248" y2="1192" id="75"></line>
                        <line x1="0" y1="584" x2="1248" y2="1208" id="76"></line>
                        <line x1="0" y1="600" x2="1248" y2="1224" id="77"></line>
                        <line x1="0" y1="616" x2="1248" y2="1240" id="78"></line>
                        <line x1="0" y1="632" x2="1232" y2="1248" id="79"></line>
                        <line x1="0" y1="648" x2="1200" y2="1248" id="80"></line>
                        <line x1="0" y1="664" x2="1168" y2="1248" id="81"></line>
                        <line x1="0" y1="680" x2="1136" y2="1248" id="82"></line>
                        <line x1="0" y1="696" x2="1104" y2="1248" id="83"></line>
                        <line x1="0" y1="712" x2="1072" y2="1248" id="84"></line>
                        <line x1="0" y1="728" x2="1040" y2="1248" id="85"></line>
                        <line x1="0" y1="744" x2="1008" y2="1248" id="86"></line>
                        <line x1="0" y1="760" x2="976" y2="1248" id="87"></line>
                        <line x1="0" y1="776" x2="944" y2="1248" id="88"></line>
                        <line x1="0" y1="792" x2="912" y2="1248" id="89"></line>
                        <line x1="0" y1="808" x2="880" y2="1248" id="90"></line>
                        <line x1="0" y1="824" x2="848" y2="1248" id="91"></line>
                        <line x1="0" y1="840" x2="816" y2="1248" id="92"></line>
                        <line x1="0" y1="856" x2="784" y2="1248" id="93"></line>
                        <line x1="0" y1="872" x2="752" y2="1248" id="94"></line>
                        <line x1="0" y1="888" x2="720" y2="1248" id="95"></line>
                        <line x1="0" y1="904" x2="688" y2="1248" id="96"></line>
                        <line x1="0" y1="920" x2="656" y2="1248" id="97"></line>
                        <line x1="0" y1="936" x2="624" y2="1248" id="98"></line>
                        <line x1="0" y1="952" x2="592" y2="1248" id="99"></line>
                        <line x1="0" y1="968" x2="560" y2="1248" id="100"></line>
                        <line x1="0" y1="984" x2="528" y2="1248" id="101"></line>
                        <line x1="0" y1="1000" x2="496" y2="1248" id="102"></line>
                        <line x1="0" y1="1016" x2="464" y2="1248" id="103"></line>
                        <line x1="0" y1="1032" x2="432" y2="1248" id="104"></line>
                        <line x1="0" y1="1048" x2="400" y2="1248" id="105"></line>
                        <line x1="0" y1="1064" x2="368" y2="1248" id="106"></line>
                        <line x1="0" y1="1080" x2="336" y2="1248" id="107"></line>
                        <line x1="0" y1="1096" x2="304" y2="1248" id="108"></line>
                        <line x1="0" y1="1112" x2="272" y2="1248" id="109"></line>
                        <line x1="0" y1="1128" x2="240" y2="1248" id="110"></line>
                        <line x1="0" y1="1144" x2="208" y2="1248" id="111"></line>
                        <line x1="0" y1="1160" x2="176" y2="1248" id="112"></line>
                        <line x1="0" y1="1176" x2="144" y2="1248" id="113"></line>
                        <line x1="0" y1="1192" x2="112" y2="1248" id="114"></line>
                        <line x1="0" y1="1208" x2="80" y2="1248" id="115"></line>
                        <line x1="0" y1="1224" x2="48" y2="1248" id="116"></line>
                        <line x1="0" y1="1240" x2="16" y2="1248" id="117"></line>
                    </g>
                    <g id="grid-1x-increase" transform="translate(624.000000, 624.000000) scale(-1, 1) translate(-624.000000, -624.000000) ">
                        <line x1="1232" y1="0" x2="1248" y2="8" id="1"></line>
                        <line x1="1200" y1="0" x2="1248" y2="24" id="2"></line>
                        <line x1="1168" y1="0" x2="1248" y2="40" id="3"></line>
                        <line x1="1136" y1="0" x2="1248" y2="56" id="4"></line>
                        <line x1="1104" y1="0" x2="1248" y2="72" id="5"></line>
                        <line x1="1072" y1="0" x2="1248" y2="88" id="6"></line>
                        <line x1="1040" y1="0" x2="1248" y2="104" id="7"></line>
                        <line x1="1008" y1="0" x2="1248" y2="120" id="8"></line>
                        <line x1="976" y1="0" x2="1248" y2="136" id="9"></line>
                        <line x1="944" y1="0" x2="1248" y2="152" id="10"></line>
                        <line x1="912" y1="0" x2="1248" y2="168" id="11"></line>
                        <line x1="880" y1="0" x2="1248" y2="184" id="12"></line>
                        <line x1="848" y1="0" x2="1248" y2="200" id="13"></line>
                        <line x1="816" y1="0" x2="1248" y2="216" id="14"></line>
                        <line x1="784" y1="0" x2="1248" y2="232" id="15"></line>
                        <line x1="752" y1="0" x2="1248" y2="248" id="16"></line>
                        <line x1="720" y1="0" x2="1248" y2="264" id="17"></line>
                        <line x1="688" y1="0" x2="1248" y2="280" id="18"></line>
                        <line x1="656" y1="0" x2="1248" y2="296" id="19"></line>
                        <line x1="624" y1="0" x2="1248" y2="312" id="20"></line>
                        <line x1="592" y1="0" x2="1248" y2="328" id="21"></line>
                        <line x1="560" y1="0" x2="1248" y2="344" id="22"></line>
                        <line x1="528" y1="0" x2="1248" y2="360" id="23"></line>
                        <line x1="496" y1="0" x2="1248" y2="376" id="24"></line>
                        <line x1="464" y1="0" x2="1248" y2="392" id="25"></line>
                        <line x1="432" y1="0" x2="1248" y2="408" id="26"></line>
                        <line x1="400" y1="0" x2="1248" y2="424" id="27"></line>
                        <line x1="368" y1="0" x2="1248" y2="440" id="28"></line>
                        <line x1="336" y1="0" x2="1248" y2="456" id="29"></line>
                        <line x1="304" y1="0" x2="1248" y2="472" id="30"></line>
                        <line x1="272" y1="0" x2="1248" y2="488" id="31"></line>
                        <line x1="240" y1="0" x2="1248" y2="504" id="32"></line>
                        <line x1="208" y1="0" x2="1248" y2="520" id="33"></line>
                        <line x1="176" y1="0" x2="1248" y2="536" id="34"></line>
                        <line x1="144" y1="0" x2="1248" y2="552" id="35"></line>
                        <line x1="112" y1="0" x2="1248" y2="568" id="36"></line>
                        <line x1="80" y1="0" x2="1248" y2="584" id="37"></line>
                        <line x1="48" y1="0" x2="1248" y2="600" id="38"></line>
                        <line x1="16" y1="0" x2="1248" y2="616" id="39"></line>
                        <line x1="0" y1="8" x2="1248" y2="632" id="40"></line>
                        <line x1="0" y1="24" x2="1248" y2="648" id="41"></line>
                        <line x1="0" y1="40" x2="1248" y2="664" id="42"></line>
                        <line x1="0" y1="56" x2="1248" y2="680" id="43"></line>
                        <line x1="0" y1="72" x2="1248" y2="696" id="44"></line>
                        <line x1="0" y1="88" x2="1248" y2="712" id="45"></line>
                        <line x1="0" y1="104" x2="1248" y2="728" id="46"></line>
                        <line x1="0" y1="120" x2="1248" y2="744" id="47"></line>
                        <line x1="0" y1="136" x2="1248" y2="760" id="48"></line>
                        <line x1="0" y1="152" x2="1248" y2="776" id="49"></line>
                        <line x1="0" y1="168" x2="1248" y2="792" id="50"></line>
                        <line x1="0" y1="184" x2="1248" y2="808" id="51"></line>
                        <line x1="0" y1="200" x2="1248" y2="824" id="52"></line>
                        <line x1="0" y1="216" x2="1248" y2="840" id="53"></line>
                        <line x1="0" y1="232" x2="1248" y2="856" id="54"></line>
                        <line x1="0" y1="248" x2="1248" y2="872" id="55"></line>
                        <line x1="0" y1="264" x2="1248" y2="888" id="56"></line>
                        <line x1="0" y1="280" x2="1248" y2="904" id="57"></line>
                        <line x1="0" y1="296" x2="1248" y2="920" id="58"></line>
                        <line x1="0" y1="312" x2="1248" y2="936" id="59"></line>
                        <line x1="0" y1="328" x2="1248" y2="952" id="60"></line>
                        <line x1="0" y1="344" x2="1248" y2="968" id="61"></line>
                        <line x1="0" y1="360" x2="1248" y2="984" id="62"></line>
                        <line x1="0" y1="376" x2="1248" y2="1000" id="63"></line>
                        <line x1="0" y1="392" x2="1248" y2="1016" id="64"></line>
                        <line x1="0" y1="408" x2="1248" y2="1032" id="65"></line>
                        <line x1="0" y1="424" x2="1248" y2="1048" id="66"></line>
                        <line x1="0" y1="440" x2="1248" y2="1064" id="67"></line>
                        <line x1="0" y1="456" x2="1248" y2="1080" id="68"></line>
                        <line x1="0" y1="472" x2="1248" y2="1096" id="69"></line>
                        <line x1="0" y1="488" x2="1248" y2="1112" id="70"></line>
                        <line x1="0" y1="504" x2="1248" y2="1128" id="71"></line>
                        <line x1="0" y1="520" x2="1248" y2="1144" id="72"></line>
                        <line x1="0" y1="536" x2="1248" y2="1160" id="73"></line>
                        <line x1="0" y1="552" x2="1248" y2="1176" id="74"></line>
                        <line x1="0" y1="568" x2="1248" y2="1192" id="75"></line>
                        <line x1="0" y1="584" x2="1248" y2="1208" id="76"></line>
                        <line x1="0" y1="600" x2="1248" y2="1224" id="77"></line>
                        <line x1="0" y1="616" x2="1248" y2="1240" id="78"></line>
                        <line x1="0" y1="632" x2="1232" y2="1248" id="79"></line>
                        <line x1="0" y1="648" x2="1200" y2="1248" id="80"></line>
                        <line x1="0" y1="664" x2="1168" y2="1248" id="81"></line>
                        <line x1="0" y1="680" x2="1136" y2="1248" id="82"></line>
                        <line x1="0" y1="696" x2="1104" y2="1248" id="83"></line>
                        <line x1="0" y1="712" x2="1072" y2="1248" id="84"></line>
                        <line x1="0" y1="728" x2="1040" y2="1248" id="85"></line>
                        <line x1="0" y1="744" x2="1008" y2="1248" id="86"></line>
                        <line x1="0" y1="760" x2="976" y2="1248" id="87"></line>
                        <line x1="0" y1="776" x2="944" y2="1248" id="88"></line>
                        <line x1="0" y1="792" x2="912" y2="1248" id="89"></line>
                        <line x1="0" y1="808" x2="880" y2="1248" id="90"></line>
                        <line x1="0" y1="824" x2="848" y2="1248" id="91"></line>
                        <line x1="0" y1="840" x2="816" y2="1248" id="92"></line>
                        <line x1="0" y1="856" x2="784" y2="1248" id="93"></line>
                        <line x1="0" y1="872" x2="752" y2="1248" id="94"></line>
                        <line x1="0" y1="888" x2="720" y2="1248" id="95"></line>
                        <line x1="0" y1="904" x2="688" y2="1248" id="96"></line>
                        <line x1="0" y1="920" x2="656" y2="1248" id="97"></line>
                        <line x1="0" y1="936" x2="624" y2="1248" id="98"></line>
                        <line x1="0" y1="952" x2="592" y2="1248" id="99"></line>
                        <line x1="0" y1="968" x2="560" y2="1248" id="100"></line>
                        <line x1="0" y1="984" x2="528" y2="1248" id="101"></line>
                        <line x1="0" y1="1000" x2="496" y2="1248" id="102"></line>
                        <line x1="0" y1="1016" x2="464" y2="1248" id="103"></line>
                        <line x1="0" y1="1032" x2="432" y2="1248" id="104"></line>
                        <line x1="0" y1="1048" x2="400" y2="1248" id="105"></line>
                        <line x1="0" y1="1064" x2="368" y2="1248" id="106"></line>
                        <line x1="0" y1="1080" x2="336" y2="1248" id="107"></line>
                        <line x1="0" y1="1096" x2="304" y2="1248" id="108"></line>
                        <line x1="0" y1="1112" x2="272" y2="1248" id="109"></line>
                        <line x1="0" y1="1128" x2="240" y2="1248" id="110"></line>
                        <line x1="0" y1="1144" x2="208" y2="1248" id="111"></line>
                        <line x1="0" y1="1160" x2="176" y2="1248" id="112"></line>
                        <line x1="0" y1="1176" x2="144" y2="1248" id="113"></line>
                        <line x1="0" y1="1192" x2="112" y2="1248" id="114"></line>
                        <line x1="0" y1="1208" x2="80" y2="1248" id="115"></line>
                        <line x1="0" y1="1224" x2="48" y2="1248" id="116"></line>
                        <line x1="0" y1="1240" x2="16" y2="1248" id="117"></line>
                    </g>
                </g>
                <rect id="box" x="0" y="0" width="1264" height="1264"></rect>
            </g>
            <g id="grid-iso-blocks" stroke-linecap="round" stroke-linejoin="round" transform="translate(200.000000, 56.000000)" stroke="#FF8080" stroke-width="2">
                <polygon id="outline" points="0 648 288 504 288 360 432 288 576 360 720 288 576 216 576 72 720 0 864 72 864 216 720 288 864 360 864 648 288 936 288 1080 144 1152 0 1080"></polygon>
                <polyline id="1" points="0 1080 288 936 0 792 864 360"></polyline>
                <polyline id="2" points="288 1080 0 936 864 504 576 360 288 504 720 720"></polyline>
                <line x1="432" y1="864" x2="0" y2="648" id="3"></line>
                <line x1="576" y1="792" x2="144" y2="576" id="4"></line>
                <line x1="864" y1="648" x2="288" y2="360" id="5"></line>
                <line x1="576" y1="72" x2="864" y2="216" id="6"></line>
                <line x1="864" y1="72" x2="576" y2="216" id="7"></line>
            </g>
        </g>
    </g>
</svg>