<?xml version="1.0" encoding="UTF-8"?>
<svg width="1280px" height="1280px" viewBox="0 0 1280 1280" version="1.1" xmlns="http://www.w3.org/2000/svg" xmlns:xlink="http://www.w3.org/1999/xlink">
    <title>@1xphi dotty thinline construction</title>
    <g id="phi-dotty-thinline-construction" stroke="none" stroke-width="1" fill="none" fill-rule="evenodd">
        <rect fill="#F2F0ED" x="0" y="0" width="1280" height="1280"></rect>
        <path d="M640,140 L1140,390 L1140,890 L640,1140 L140,890 L140,390 L640,140 Z M1100,430 L660,650 L660,1090 L1100,870 L1100,430 Z M180,430 L180,870 L620,1090 L620,650 L180,430 Z M840,660 L840,820 L760,860 L760,700 L840,660 Z M1000,580 L1000,740 L920,780 L920,620 L1000,580 Z M640,180 L200,400 L640,620 L1080,400 L640,180 Z" id="Dotty" fill-opacity="0.25" fill="#8080FF" fill-rule="nonzero"></path>
        <g id="grid-fine" transform="translate(20.000000, 20.000000)" stroke="#80FF80" stroke-opacity="0.5" stroke-width="2">
            <g id="grid-1x-offset" transform="translate(20.000000, 20.000000)">
                <g id="grid-1x-decrease">
                    <line x1="1160" y1="1.85037171e-16" x2="1200" y2="20" id="1"></line>
                    <line x1="1080" y1="3.96508223e-16" x2="1200" y2="60" id="2"></line>
                    <line x1="1000" y1="5.29879171e-16" x2="1200" y2="100" id="3"></line>
                    <line x1="920" y1="2.20194233e-15" x2="1200" y2="140" id="4"></line>
                    <line x1="840" y1="1.552121e-15" x2="1200" y2="180" id="5"></line>
                    <line x1="760" y1="2.18122621e-15" x2="1200" y2="220" id="6"></line>
                    <line x1="680" y1="-2.87835599e-16" x2="1200" y2="260" id="7"></line>
                    <line x1="600" y1="7.96853623e-16" x2="1200" y2="300" id="8"></line>
                    <line x1="520" y1="-2.11140629e-16" x2="1200" y2="340" id="9"></line>
                    <line x1="440" y1="-1.66622414e-15" x2="1200" y2="380" id="10"></line>
                    <line x1="360" y1="3.017612e-16" x2="1200" y2="420" id="11"></line>
                    <line x1="280" y1="9.16745994e-15" x2="1200" y2="460" id="12"></line>
                    <line x1="200" y1="-1.72792064e-16" x2="1200" y2="500" id="13"></line>
                    <line x1="120" y1="2.78501969e-15" x2="1200" y2="540" id="14"></line>
                    <line x1="40" y1="1.39836353e-15" x2="1200" y2="580" id="15"></line>
                    <line x1="1.01585407e-12" y1="20" x2="1200" y2="620" id="16"></line>
                    <line x1="1.01585407e-12" y1="60" x2="1200" y2="660" id="17"></line>
                    <line x1="1.01585407e-12" y1="100" x2="1200" y2="700" id="18"></line>
                    <line x1="1.01585407e-12" y1="140" x2="1200" y2="740" id="19"></line>
                    <line x1="1.01585407e-12" y1="180" x2="1200" y2="780" id="20"></line>
                    <line x1="1.01585407e-12" y1="220" x2="1200" y2="820" id="22"></line>
                    <line x1="1.01585407e-12" y1="260" x2="1200" y2="860" id="23"></line>
                    <line x1="1.01585407e-12" y1="300" x2="1200" y2="900" id="24"></line>
                    <line x1="1.01585407e-12" y1="340" x2="1200" y2="940" id="25"></line>
                    <line x1="1.01585407e-12" y1="380" x2="1200" y2="980" id="26"></line>
                    <line x1="1.01585407e-12" y1="420" x2="1200" y2="1020" id="27"></line>
                    <line x1="1.01585407e-12" y1="460" x2="1200" y2="1060" id="28"></line>
                    <line x1="1.01585407e-12" y1="500" x2="1200" y2="1100" id="29"></line>
                    <line x1="1.01585407e-12" y1="540" x2="1200" y2="1140" id="30"></line>
                    <line x1="1.01585407e-12" y1="580" x2="1200" y2="1180" id="31"></line>
                    <line x1="1.01585407e-12" y1="620" x2="1160" y2="1200" id="32"></line>
                    <line x1="1.01585407e-12" y1="660" x2="1080" y2="1200" id="33"></line>
                    <line x1="1.01585407e-12" y1="700" x2="1000" y2="1200" id="34"></line>
                    <line x1="1.01585407e-12" y1="740" x2="920" y2="1200" id="35"></line>
                    <line x1="1.01585407e-12" y1="780" x2="840" y2="1200" id="36"></line>
                    <line x1="1.01585407e-12" y1="820" x2="760" y2="1200" id="37"></line>
                    <line x1="1.01585407e-12" y1="860" x2="680" y2="1200" id="38"></line>
                    <line x1="6.52811138e-13" y1="900" x2="600" y2="1200" id="39"></line>
                    <line x1="2.67341704e-12" y1="940" x2="520" y2="1200" id="40"></line>
                    <line x1="1.99840144e-13" y1="980" x2="440" y2="1200" id="41"></line>
                    <line x1="0" y1="1020" x2="360" y2="1200" id="42"></line>
                    <line x1="6.52811138e-13" y1="1060" x2="280" y2="1200" id="43"></line>
                    <line x1="0" y1="1100" x2="200" y2="1200" id="44"></line>
                    <line x1="0" y1="1140" x2="120" y2="1200" id="45"></line>
                    <line x1="6.66133815e-14" y1="1180" x2="40" y2="1200" id="46"></line>
                </g>
                <g id="grid-1x-increase" transform="translate(600.000000, 600.000000) scale(-1, 1) translate(-600.000000, -600.000000) ">
                    <line x1="1160" y1="1.85037171e-16" x2="1200" y2="20" id="1"></line>
                    <line x1="1080" y1="3.96508223e-16" x2="1200" y2="60" id="2"></line>
                    <line x1="1000" y1="5.29879171e-16" x2="1200" y2="100" id="3"></line>
                    <line x1="920" y1="2.20194233e-15" x2="1200" y2="140" id="4"></line>
                    <line x1="840" y1="1.552121e-15" x2="1200" y2="180" id="5"></line>
                    <line x1="760" y1="2.18122621e-15" x2="1200" y2="220" id="6"></line>
                    <line x1="680" y1="-2.87835599e-16" x2="1200" y2="260" id="7"></line>
                    <line x1="600" y1="7.96853623e-16" x2="1200" y2="300" id="8"></line>
                    <line x1="520" y1="-2.11140629e-16" x2="1200" y2="340" id="9"></line>
                    <line x1="440" y1="-1.66622414e-15" x2="1200" y2="380" id="10"></line>
                    <line x1="360" y1="3.017612e-16" x2="1200" y2="420" id="11"></line>
                    <line x1="280" y1="9.16745994e-15" x2="1200" y2="460" id="12"></line>
                    <line x1="200" y1="-1.72792064e-16" x2="1200" y2="500" id="13"></line>
                    <line x1="120" y1="2.78501969e-15" x2="1200" y2="540" id="14"></line>
                    <line x1="40" y1="1.39836353e-15" x2="1200" y2="580" id="15"></line>
                    <line x1="4.16333634e-13" y1="20" x2="1200" y2="620" id="16"></line>
                    <line x1="7.21098955e-14" y1="60" x2="1200" y2="660" id="17"></line>
                    <line x1="4.16333634e-13" y1="100" x2="1200" y2="700" id="18"></line>
                    <line x1="4.16333634e-13" y1="140" x2="1200" y2="740" id="19"></line>
                    <line x1="4.16333634e-13" y1="180" x2="1200" y2="780" id="20"></line>
                    <line x1="4.16333634e-13" y1="220" x2="1200" y2="820" id="22"></line>
                    <line x1="4.16333634e-13" y1="260" x2="1200" y2="860" id="23"></line>
                    <line x1="4.16333634e-13" y1="300" x2="1200" y2="900" id="24"></line>
                    <line x1="4.16333634e-13" y1="340" x2="1200" y2="940" id="25"></line>
                    <line x1="4.16333634e-13" y1="380" x2="1200" y2="980" id="26"></line>
                    <line x1="4.16333634e-13" y1="420" x2="1200" y2="1020" id="27"></line>
                    <line x1="4.16333634e-13" y1="460" x2="1200" y2="1060" id="28"></line>
                    <line x1="4.16333634e-13" y1="500" x2="1200" y2="1100" id="29"></line>
                    <line x1="4.16333634e-13" y1="540" x2="1200" y2="1140" id="30"></line>
                    <line x1="4.16333634e-13" y1="580" x2="1200" y2="1180" id="31"></line>
                    <line x1="4.16333634e-13" y1="620" x2="1160" y2="1200" id="32"></line>
                    <line x1="4.16333634e-13" y1="660" x2="1080" y2="1200" id="33"></line>
                    <line x1="4.16333634e-13" y1="700" x2="1000" y2="1200" id="34"></line>
                    <line x1="4.16333634e-13" y1="740" x2="920" y2="1200" id="35"></line>
                    <line x1="4.16333634e-13" y1="780" x2="840" y2="1200" id="36"></line>
                    <line x1="4.16333634e-13" y1="820" x2="760" y2="1200" id="37"></line>
                    <line x1="4.16333634e-13" y1="860" x2="680" y2="1200" id="38"></line>
                    <line x1="4.16333634e-13" y1="900" x2="600" y2="1200" id="39"></line>
                    <line x1="4.16333634e-13" y1="940" x2="520" y2="1200" id="40"></line>
                    <line x1="4.16333634e-13" y1="980" x2="440" y2="1200" id="41"></line>
                    <line x1="5.2846616e-13" y1="1020" x2="360" y2="1200" id="42"></line>
                    <line x1="7.50510765e-13" y1="1060" x2="280" y2="1200" id="43"></line>
                    <line x1="-3.99680289e-14" y1="1100" x2="200" y2="1200" id="44"></line>
                    <line x1="-1.22124533e-13" y1="1140" x2="120" y2="1200" id="45"></line>
                    <line x1="-4.4408921e-15" y1="1180" x2="40" y2="1200" id="46"></line>
                </g>
            </g>
            <g id="grid-1x" transform="translate(20.000000, 20.000000)">
                <g id="grid-1x-decrease">
                    <line x1="1120" y1="0" x2="1200" y2="40" id="1"></line>
                    <line x1="1040" y1="0" x2="1200" y2="80" id="2"></line>
                    <line x1="960" y1="0" x2="1200" y2="120" id="3"></line>
                    <line x1="880" y1="0" x2="1200" y2="160" id="4"></line>
                    <line x1="800" y1="0" x2="1200" y2="200" id="5"></line>
                    <line x1="720" y1="0" x2="1200" y2="240" id="6"></line>
                    <line x1="640" y1="0" x2="1200" y2="280" id="7"></line>
                    <line x1="560" y1="0" x2="1200" y2="320" id="8"></line>
                    <line x1="480" y1="0" x2="1200" y2="360" id="9"></line>
                    <line x1="400" y1="0" x2="1200" y2="400" id="10"></line>
                    <line x1="320" y1="0" x2="1200" y2="440" id="11"></line>
                    <line x1="240" y1="0" x2="1200" y2="480" id="12"></line>
                    <line x1="160" y1="0" x2="1200" y2="520" id="13"></line>
                    <line x1="80" y1="0" x2="1200" y2="560" id="14"></line>
                    <line x1="0" y1="0" x2="1200" y2="600" id="15"></line>
                    <line x1="1.01585407e-12" y1="40" x2="1200" y2="640" id="16"></line>
                    <line x1="1.01585407e-12" y1="80" x2="1200" y2="680" id="17"></line>
                    <line x1="1.01585407e-12" y1="120" x2="1200" y2="720" id="18"></line>
                    <line x1="1.01585407e-12" y1="160" x2="1200" y2="760" id="19"></line>
                    <line x1="1.01585407e-12" y1="200" x2="1200" y2="800" id="20"></line>
                    <line x1="1.01585407e-12" y1="240" x2="1200" y2="840" id="22"></line>
                    <line x1="1.01585407e-12" y1="280" x2="1200" y2="880" id="23"></line>
                    <line x1="1.01585407e-12" y1="320" x2="1200" y2="920" id="24"></line>
                    <line x1="1.01585407e-12" y1="360" x2="1200" y2="960" id="25"></line>
                    <line x1="1.01585407e-12" y1="400" x2="1200" y2="1000" id="26"></line>
                    <line x1="1.01585407e-12" y1="440" x2="1200" y2="1040" id="27"></line>
                    <line x1="1.01585407e-12" y1="480" x2="1200" y2="1080" id="28"></line>
                    <line x1="1.01585407e-12" y1="520" x2="1200" y2="1120" id="29"></line>
                    <line x1="1.01585407e-12" y1="560" x2="1200" y2="1160" id="30"></line>
                    <line x1="1.01585407e-12" y1="600" x2="1200" y2="1200" id="31"></line>
                    <line x1="1.01585407e-12" y1="640" x2="1120" y2="1200" id="32"></line>
                    <line x1="1.01585407e-12" y1="680" x2="1040" y2="1200" id="33"></line>
                    <line x1="1.01585407e-12" y1="720" x2="960" y2="1200" id="34"></line>
                    <line x1="1.01585407e-12" y1="760" x2="880" y2="1200" id="35"></line>
                    <line x1="1.01585407e-12" y1="800" x2="800" y2="1200" id="36"></line>
                    <line x1="1.01585407e-12" y1="840" x2="720" y2="1200" id="37"></line>
                    <line x1="1.01585407e-12" y1="880" x2="640" y2="1200" id="38"></line>
                    <line x1="6.52811138e-13" y1="920" x2="560" y2="1200" id="39"></line>
                    <line x1="2.67341704e-12" y1="960" x2="480" y2="1200" id="40"></line>
                    <line x1="1.99840144e-13" y1="1000" x2="400" y2="1200" id="41"></line>
                    <line x1="0" y1="1040" x2="320" y2="1200" id="42"></line>
                    <line x1="6.52811138e-13" y1="1080" x2="240" y2="1200" id="43"></line>
                    <line x1="0" y1="1120" x2="160" y2="1200" id="44"></line>
                    <line x1="0" y1="1160" x2="80" y2="1200" id="45"></line>
                </g>
                <g id="grid-1x-increase" transform="translate(605.000000, 605.000000) scale(-1, 1) translate(-605.000000, -605.000000) ">
                    <line x1="1130" y1="0" x2="1210" y2="40" id="1"></line>
                    <line x1="1050" y1="0" x2="1210" y2="80" id="2"></line>
                    <line x1="970" y1="0" x2="1210" y2="120" id="3"></line>
                    <line x1="890" y1="0" x2="1210" y2="160" id="4"></line>
                    <line x1="810" y1="0" x2="1210" y2="200" id="5"></line>
                    <line x1="730" y1="0" x2="1210" y2="240" id="6"></line>
                    <line x1="650" y1="0" x2="1210" y2="280" id="7"></line>
                    <line x1="570" y1="0" x2="1210" y2="320" id="8"></line>
                    <line x1="490" y1="0" x2="1210" y2="360" id="9"></line>
                    <line x1="410" y1="0" x2="1210" y2="400" id="10"></line>
                    <line x1="330" y1="0" x2="1210" y2="440" id="11"></line>
                    <line x1="250" y1="0" x2="1210" y2="480" id="12"></line>
                    <line x1="170" y1="0" x2="1210" y2="520" id="13"></line>
                    <line x1="90" y1="0" x2="1210" y2="560" id="14"></line>
                    <line x1="10" y1="0" x2="1210" y2="600" id="15"></line>
                    <line x1="10" y1="40" x2="1210" y2="640" id="16"></line>
                    <line x1="10" y1="80" x2="1210" y2="680" id="17"></line>
                    <line x1="10" y1="120" x2="1210" y2="720" id="18"></line>
                    <line x1="10" y1="160" x2="1210" y2="760" id="19"></line>
                    <line x1="10" y1="200" x2="1210" y2="800" id="20"></line>
                    <line x1="10" y1="240" x2="1210" y2="840" id="22"></line>
                    <line x1="10" y1="280" x2="1210" y2="880" id="23"></line>
                    <line x1="10" y1="320" x2="1210" y2="920" id="24"></line>
                    <line x1="10" y1="360" x2="1210" y2="960" id="25"></line>
                    <line x1="10" y1="400" x2="1210" y2="1000" id="26"></line>
                    <line x1="10" y1="440" x2="1210" y2="1040" id="27"></line>
                    <line x1="10" y1="480" x2="1210" y2="1080" id="28"></line>
                    <line x1="10" y1="520" x2="1210" y2="1120" id="29"></line>
                    <line x1="10" y1="560" x2="1210" y2="1160" id="30"></line>
                    <line x1="10" y1="600" x2="1210" y2="1200" id="31"></line>
                    <line x1="10" y1="640" x2="1130" y2="1200" id="32"></line>
                    <line x1="10" y1="680" x2="1050" y2="1200" id="33"></line>
                    <line x1="10" y1="720" x2="970" y2="1200" id="34"></line>
                    <line x1="10" y1="760" x2="890" y2="1200" id="35"></line>
                    <line x1="10" y1="800" x2="810" y2="1200" id="36"></line>
                    <line x1="10" y1="840" x2="730" y2="1200" id="37"></line>
                    <line x1="10" y1="880" x2="650" y2="1200" id="38"></line>
                    <line x1="10" y1="920" x2="570" y2="1200" id="39"></line>
                    <line x1="10" y1="960" x2="490" y2="1200" id="40"></line>
                    <line x1="10" y1="1000" x2="410" y2="1200" id="41"></line>
                    <line x1="10" y1="1040" x2="330" y2="1200" id="42"></line>
                    <line x1="10" y1="1080" x2="250" y2="1200" id="43"></line>
                    <line x1="10" y1="1120" x2="170" y2="1200" id="44"></line>
                    <line x1="10" y1="1160" x2="90" y2="1200" id="45"></line>
                </g>
            </g>
            <polygon id="box" points="-1.15352172e-12 6.02295991e-13 1240 6.02295991e-13 1240 1240 -1.15352172e-12 1240"></polygon>
        </g>
        <g id="grid-iso-blocks" stroke-linecap="round" stroke-linejoin="round" transform="translate(160.000000, 160.000000)" stroke="#FF8080" stroke-width="4">
            <polygon id="outline" points="0 240 0 720 480 960 960 720 960 240 480 0"></polygon>
            <line x1="0" y1="720" x2="960" y2="240" id="1"></line>
            <line x1="0" y1="240" x2="960" y2="720" id="2"></line>
        </g>
    </g>
</svg>