<?xml version="1.0" encoding="UTF-8"?>
<svg width="1280px" height="1280px" viewBox="0 0 1280 1280" version="1.1" xmlns="http://www.w3.org/2000/svg" xmlns:xlink="http://www.w3.org/1999/xlink">
    <title>phi logo bold lines black@1x</title>
    <g id="phi-logo-bold-lines-black" stroke="none" stroke-width="1" fill="none" fill-rule="evenodd">
        <path d="M928,40 L1096,124 L1096,292 L976,352 L1096,412 L1096,724 L520,1012 L520,1156 L352,1240 L184,1156 L184,700 L472,556 L472,412 L640,328 L784,400 L880,352 L760,292 L760,124 L928,40 Z M616,676 L376,796 L376,1180 L472,1132 L472,868 L520,844 L519.813529,964.093232 L616,916 L616,676 Z M232,748 L232,1132 L328,1180 L328,796 L232,748 Z M760,460 L664,508 L664,892 L760,844 L760,724 L808,700 L808,820 L904,772 L904,532 L760,604 L760,460 Z M496,592 L256,712 L352,760 L592,640 L496,592 Z M1048,460 L952,508 L952,748 L1048,700 L1048,460 Z M520,460 L520,556 L616,604 L616,508 L520,460 Z M808,460 L808,532 L880,496 L808,460 Z M640,376 L544,424 L640,472 L736,424 L640,376 Z M928,376 L832,424 L928,472 L1024,424 L928,376 Z M1048,172 L952,220 L952,316 L1048,268 L1048,172 Z M808,172 L808,268 L904,316 L904,220 L808,172 Z M928,88 L832,136 L928,184 L1024,136 L928,88 Z" id="logo" fill="#000000" fill-rule="nonzero"></path>
    </g>
</svg>