<?xml version="1.0" encoding="UTF-8"?>
<svg width="1280px" height="1280px" viewBox="0 0 1280 1280" version="1.1" xmlns="http://www.w3.org/2000/svg" xmlns:xlink="http://www.w3.org/1999/xlink">
    <title>phi dotty thinline lines black@1x</title>
    <g id="phi-dotty-thinline-lines-black" stroke="none" stroke-width="1" fill="none" fill-rule="evenodd">
        <path d="M640,140 L1140,390 L1140,890 L640,1140 L140,890 L140,390 L640,140 Z M1100,430 L660,650 L660,1090 L1100,870 L1100,430 Z M180,430 L180,870 L620,1090 L620,650 L180,430 Z M840,660 L840,820 L760,860 L760,700 L840,660 Z M1000,580 L1000,740 L920,780 L920,620 L1000,580 Z M640,180 L200,400 L640,620 L1080,400 L640,180 Z" id="Dotty" fill="#000000" fill-rule="nonzero"></path>
    </g>
</svg>